<?xml version="1.0" standalone="no"?>
<!DOCTYPE svg PUBLIC "-//W3C//DTD SVG 20010904//EN"
 "http://www.w3.org/TR/2001/REC-SVG-20010904/DTD/svg10.dtd">
<svg version="1.0" xmlns="http://www.w3.org/2000/svg"
 width="300.000000pt" height="300.000000pt" viewBox="0 0 300.000000 300.000000"
 preserveAspectRatio="xMidYMid meet">
<metadata>
Created by potrace 1.14, written by Peter Selinger 2001-2017
</metadata>
<g transform="translate(0.000000,300.000000) scale(0.100000,-0.100000)"
fill="#000000" stroke="none">
<path d="M0 1917 c0 -839 1 -867 19 -876 10 -6 33 -12 50 -13 22 -2 31 -7 31
-20 0 -12 15 -22 52 -33 28 -8 56 -15 61 -15 5 0 7 25 5 57 -2 39 1 57 10 60
9 4 12 -5 11 -29 -1 -31 19 -144 41 -217 5 -19 7 -38 4 -42 -9 -16 -34 -9 -35
9 -3 47 -7 84 -13 115 l-6 34 -50 -13 c-89 -23 -138 -82 -110 -135 8 -13 7
-25 0 -40 -7 -11 -9 -23 -6 -27 3 -3 6 1 6 8 0 13 14 5 16 -8 3 -30 20 -96 34
-137 10 -27 23 -75 29 -106 16 -76 44 -101 115 -106 69 -4 87 12 82 67 -2 22
-11 50 -20 64 -20 32 -21 56 0 56 11 0 14 -6 9 -20 -5 -14 -2 -20 10 -20 13 0
15 6 10 32 -4 18 -11 39 -16 48 -4 8 -11 24 -15 35 -7 18 -8 17 -12 -7 -5 -41
-18 -34 -31 16 -15 61 -14 87 3 80 7 -3 13 -17 12 -32 -1 -19 4 -27 16 -27 16
0 98 -94 98 -113 0 -18 26 -21 100 -11 40 5 109 11 154 15 44 3 84 8 88 10 4
3 -3 22 -15 43 -61 109 -98 168 -115 186 -37 40 -74 113 -61 121 13 8 59 -41
59 -63 0 -7 10 -23 23 -36 12 -14 32 -40 45 -58 103 -153 134 -189 164 -189
27 0 28 -1 14 -16 -9 -8 -16 -18 -16 -21 0 -9 101 -206 113 -222 8 -9 24 -11
54 -7 24 3 45 1 48 -5 4 -5 12 -9 18 -8 35 4 56 -2 51 -15 -4 -9 -30 -17 -75
-21 -48 -5 -69 -11 -69 -21 0 -10 14 -13 53 -12 91 2 147 -5 158 -19 15 -18
64 -17 79 2 11 13 8 15 -21 16 -27 0 -30 2 -14 8 11 5 26 6 33 3 20 -7 43 18
33 37 -5 9 -7 21 -4 27 2 6 -3 17 -12 24 -8 7 -15 16 -15 21 0 14 30 10 30 -3
1 -9 4 -8 9 2 14 24 22 130 11 131 -5 1 -15 2 -22 3 -6 0 -13 8 -15 16 -4 13
-3 13 6 0 10 -13 11 -13 11 0 0 12 2 12 9 2 5 -9 18 6 40 50 37 75 40 103 11
95 -24 -6 -25 3 -4 29 8 10 13 14 10 8 -3 -7 1 -15 10 -18 22 -9 24 -8 24 10
0 27 62 144 76 144 23 0 193 -29 294 -51 113 -24 197 -42 305 -64 44 -9 97
-23 118 -31 21 -8 43 -12 48 -9 5 4 9 -6 9 -22 0 -27 0 -27 14 -7 14 20 18 20
103 8 55 -8 89 -10 91 -4 2 6 15 10 28 10 17 0 24 6 24 18 0 25 -39 59 -100
88 -28 14 -65 46 -71 62 -4 9 1 31 11 47 10 17 21 46 25 65 4 19 14 45 22 58
8 13 11 31 8 41 -3 11 0 21 8 24 8 3 23 28 33 57 14 39 20 47 25 33 7 -16 8
-16 8 2 1 26 57 158 111 259 31 60 38 81 29 87 -8 4 -18 4 -24 -1 -11 -9 -106
-196 -125 -247 -7 -18 -16 -33 -20 -33 -5 0 -16 -21 -25 -47 -20 -56 -88 -219
-117 -280 -19 -42 -35 -52 -53 -34 -6 5 -38 23 -72 41 -44 22 -63 38 -63 51 0
10 5 19 11 19 6 0 9 6 6 14 -3 8 1 17 10 20 14 6 14 9 -2 26 -17 19 -17 20 -1
20 16 0 16 1 1 16 -9 10 -26 14 -40 11 -23 -4 -30 3 -26 26 1 5 -3 6 -9 2 -5
-3 -10 -1 -10 6 0 7 -3 10 -6 6 -4 -3 -13 0 -21 8 -8 8 -25 15 -39 15 -13 0
-27 1 -31 2 -14 3 -47 38 -42 43 10 10 160 -13 183 -28 48 -32 75 -2 91 100 7
44 26 68 47 60 14 -5 83 27 93 43 8 13 -1 13 -27 -1 -15 -8 -27 -8 -46 0 -20
9 -27 9 -33 -1 -4 -7 -11 -9 -15 -5 -13 12 -34 -15 -34 -43 0 -33 -34 -67 -52
-53 -7 6 -58 20 -112 32 -55 12 -106 27 -113 33 -16 13 -17 40 -1 56 7 7 8 12
1 12 -5 0 -22 11 -38 25 -31 30 -45 28 -62 -6 -10 -19 -10 -25 2 -32 8 -4 15
-19 15 -33 0 -13 7 -27 15 -30 10 -4 15 -20 15 -45 0 -47 -4 -47 -115 -19 -97
25 -107 25 -75 0 14 -11 21 -20 15 -20 -5 0 -26 16 -45 35 -19 20 -55 55 -78
78 -60 58 -114 133 -110 153 2 9 32 34 67 55 l64 39 21 -23 c12 -12 48 -57 80
-99 48 -64 63 -78 85 -77 25 1 25 1 3 7 -25 8 -174 190 -166 204 7 12 58 10
71 -3 11 -11 79 -3 88 11 10 16 51 -3 68 -32 22 -39 34 -30 13 10 -17 33 -38
45 -80 46 -16 1 -31 7 -34 14 -3 11 0 12 18 2 36 -19 33 -5 -6 25 -38 29 -64
77 -64 120 0 14 -5 25 -11 25 -7 0 -10 17 -7 45 3 48 -1 52 -32 33 -16 -10
-25 -9 -52 6 -18 10 -42 27 -53 37 -21 19 -52 20 -63 2 -7 -10 -46 -33 -57
-33 -3 0 -3 4 0 10 3 5 0 7 -8 4 -8 -3 -20 2 -27 11 -11 13 -10 14 5 9 13 -5
16 -3 13 7 -3 8 -15 13 -27 12 -28 -4 -28 23 2 38 12 6 30 18 39 26 16 14 15
18 -17 59 -26 35 -32 50 -26 71 10 38 34 50 65 34 22 -12 29 -11 61 8 36 21
67 28 62 13 -1 -4 1 -8 6 -10 18 -6 27 -1 27 16 0 11 20 26 61 45 93 42 108
43 156 8 24 -17 45 -31 48 -31 3 0 5 14 5 30 0 26 2 29 14 18 8 -7 12 -16 9
-20 -2 -5 0 -8 6 -8 6 0 8 20 6 53 -8 85 -15 114 -30 127 -8 7 -15 19 -15 27
0 11 4 11 20 3 26 -14 43 -47 42 -82 -1 -34 14 -37 20 -4 7 34 -15 79 -48 103
-40 28 -100 46 -134 41 -16 -2 -27 -2 -25 2 2 3 -17 7 -43 8 -26 1 -65 4 -87
8 -110 16 -169 11 -265 -20 -97 -32 -185 -80 -175 -95 2 -5 -2 -11 -10 -15
-10 -4 -15 1 -15 15 0 13 -4 18 -12 13 -7 -4 -24 -8 -38 -9 -30 -1 -158 -33
-183 -46 -10 -5 -22 -7 -27 -4 -5 3 -11 1 -14 -3 -3 -5 10 -24 30 -42 41 -37
38 -55 -4 -22 -68 55 -68 55 -124 42 -29 -7 -64 -18 -77 -25 -32 -16 -88 0
-108 32 -9 13 -20 23 -25 23 -15 0 -138 88 -174 124 -17 17 -59 51 -94 76 -35
25 -68 50 -74 56 -6 5 -38 29 -71 52 -33 23 -75 54 -92 68 l-33 27 0 -866z
m1400 565 c0 -4 -13 -13 -29 -19 -28 -10 -91 -84 -91 -107 0 -6 12 6 27 27 29
41 122 93 149 83 21 -8 8 -26 -20 -26 -32 0 -111 -67 -133 -112 -20 -42 -46
-47 -51 -11 -2 12 4 37 14 55 30 60 134 145 134 110z m369 -22 c32 -16 61 -36
65 -46 5 -12 2 -15 -10 -10 -9 3 -28 9 -42 13 -37 8 -82 41 -82 59 0 19 2 18
69 -16z m-609 -117 c0 -5 -5 -15 -10 -23 -8 -12 -10 -11 -10 8 0 12 5 22 10
22 6 0 10 -3 10 -7z m-397 -50 c-13 -2 -35 -2 -50 0 -16 2 -5 4 22 4 28 0 40
-2 28 -4z m327 -20 c0 -5 -4 -14 -9 -22 -8 -12 -12 -12 -25 -2 -9 7 -13 17
-10 22 6 11 44 12 44 2z m-410 -24 c0 -3 -12 -12 -26 -19 -22 -12 -27 -12 -34
0 -5 8 -5 17 0 20 11 7 60 6 60 -1z m391 -30 c29 -15 23 -30 -8 -18 -19 7 -28
6 -34 -2 -5 -9 -15 -9 -39 0 -18 6 -57 11 -86 11 -30 0 -54 4 -54 8 0 12 199
13 221 1z m-262 -32 c-15 -7 -41 -27 -60 -45 -22 -22 -39 -30 -51 -26 -11 3
-25 1 -32 -5 -10 -9 -15 -8 -19 2 -6 17 12 41 38 50 14 5 11 -1 -10 -18 -37
-31 -25 -33 15 -3 16 12 51 29 77 39 54 20 82 23 42 6z m289 -12 c38 -11 20
-33 -21 -26 -4 1 -42 2 -82 2 -84 1 -100 15 -27 24 26 3 54 8 62 9 16 4 31 2
68 -9z m-262 -80 c-11 -8 -29 -15 -40 -15 -36 0 7 25 49 29 6 0 1 -6 -9 -14z
m-68 -186 c-51 -76 -68 -107 -68 -124 0 -6 -14 -40 -31 -74 -28 -55 -32 -60
-44 -44 -11 14 -10 23 6 52 10 20 19 39 19 43 0 31 144 227 157 214 2 -2 -15
-32 -39 -67z m577 13 c-7 -7 45 -33 85 -43 24 -5 37 -4 42 4 6 9 8 9 8 -1 0
-7 -16 -22 -35 -33 -37 -22 -40 -30 -26 -57 5 -9 12 -37 16 -62 6 -37 5 -43
-6 -32 -21 19 -27 15 -40 -28 -10 -34 -69 -107 -69 -86 0 5 -7 3 -15 -4 -13
-11 -15 -5 -15 49 0 53 2 61 19 61 16 0 20 9 23 53 2 28 0 59 -4 67 -7 14 -31
95 -32 112 -1 3 -4 10 -8 14 -19 18 -5 22 27 7 19 -9 33 -19 30 -21z m-352
-23 c-5 -19 -7 -19 -15 -5 -10 18 -2 39 12 31 4 -3 6 -15 3 -26z m-29 -55 c-3
-69 -27 -131 -75 -198 -16 -21 -29 -45 -29 -52 0 -7 -9 -18 -20 -24 -22 -12
-21 -6 11 57 10 20 19 43 19 50 0 7 5 13 10 13 6 0 10 6 10 13 0 6 7 26 16 42
25 48 35 77 24 70 -13 -8 -12 -5 1 34 14 39 35 35 33 -5z m606 -44 c-14 -26
-25 -25 -27 2 -1 13 -7 24 -13 26 -6 2 -4 9 7 17 15 11 19 10 31 -6 10 -14 10
-24 2 -39z m-120 20 c8 -5 11 -10 7 -10 -4 0 -2 -10 4 -22 12 -22 11 -22 -14
2 -37 34 -35 54 3 30z m-734 -106 c-19 -28 -20 -38 -4 -28 19 12 -4 -19 -29
-39 -18 -15 -20 -21 -10 -32 6 -7 17 -10 22 -7 11 6 -25 -39 -40 -50 -16 -12
3 -9 40 6 19 8 59 33 90 57 30 23 58 39 62 35 6 -6 -52 -76 -69 -84 -4 -2 -37
-28 -73 -58 -37 -30 -93 -69 -125 -88 -53 -32 -61 -33 -101 -24 -77 18 -89 25
-89 55 0 20 -3 24 -11 16 -10 -10 -46 -9 -107 3 -14 3 -22 12 -22 25 0 17 4
20 20 15 11 -3 29 -9 40 -12 25 -8 27 14 3 32 -10 7 -14 16 -10 21 5 4 14 1
20 -7 17 -22 85 -39 127 -33 37 6 47 14 93 76 16 21 38 47 50 58 l22 20 10
-22 c8 -19 3 -27 -33 -58 -42 -37 -45 -51 -10 -51 24 0 88 66 76 78 -11 11 51
134 64 126 5 -3 2 -16 -6 -30z m220 -36 c-6 -25 -18 -48 -27 -48 -5 0 -3 14 6
30 16 31 25 39 21 18z m332 -40 c2 -20 -1 -45 -7 -55 -17 -32 -25 -201 -11
-218 10 -12 10 -19 2 -27 -20 -20 -13 -38 12 -38 14 0 27 -4 30 -9 10 -15 -28
-38 -106 -64 -103 -34 -104 -32 -100 127 1 67 7 148 13 180 6 33 8 75 4 94 -4
21 -2 38 4 42 7 3 44 6 84 6 l72 -1 3 -37z m-448 -98 c0 -6 -54 -40 -64 -40
-15 0 -4 23 21 45 25 21 42 19 43 -5z m-200 -190 c0 -5 -8 -10 -17 -10 -15 0
-16 2 -3 10 19 12 20 12 20 0z m-103 -42 c-16 -6 -24 -14 -20 -21 3 -7 3 -9
-2 -5 -4 4 -14 3 -22 -3 -9 -8 -13 -8 -13 -1 0 16 41 42 65 41 16 0 14 -3 -8
-11z m55 -74 c4 -3 18 -7 32 -8 29 -1 36 -16 8 -16 -24 0 -53 -31 -55 -59 -1
-11 -6 -21 -13 -21 -7 0 -9 10 -6 25 5 30 -13 55 -39 55 -30 0 -22 18 9 22 23
3 28 9 37 48 l10 45 6 -42 c3 -24 8 -45 11 -49z m-338 -79 c1 -27 -4 -47 -11
-50 -10 -3 -13 12 -13 57 0 47 3 59 12 50 6 -6 12 -32 12 -57z m1392 -63 c17
-30 19 -42 10 -63 -6 -14 -16 -24 -22 -22 -6 2 -16 -3 -23 -11 -10 -12 -8 -14
11 -9 22 4 22 4 4 -11 -23 -19 -51 -22 -40 -4 5 8 2 9 -9 5 -22 -8 -23 23 -1
65 13 25 19 50 23 90 2 17 28 -5 47 -40z m-566 -206 c0 -11 -101 -126 -110
-126 -18 0 -10 19 10 25 27 9 25 25 -2 25 l-23 0 25 20 c14 11 30 20 35 20 6
0 21 9 35 20 27 21 30 23 30 16z m359 -126 c-11 -30 -20 -36 -32 -23 -6 5 30
53 39 53 2 0 -2 -13 -7 -30z m-70 -189 c-12 -29 -23 -50 -25 -48 -3 2 5 27 17
56 12 28 24 50 26 47 2 -2 -6 -27 -18 -55z m-39 -169 c0 -7 -4 -11 -9 -8 -5 3
-26 -1 -46 -10 -44 -18 -55 -12 -30 16 20 23 85 24 85 2z"/>
<path d="M1340 1773 c0 -12 20 -40 20 -29 0 5 10 1 22 -10 20 -17 20 -16 -2
13 -24 31 -40 41 -40 26z"/>
<path d="M395 1490 c3 -5 10 -10 16 -10 5 0 9 5 9 10 0 6 -7 10 -16 10 -8 0
-12 -4 -9 -10z"/>
<path d="M1457 2163 c-4 -3 -7 -11 -7 -17 0 -6 5 -5 12 2 6 6 9 14 7 17 -3 3
-9 2 -12 -2z"/>
<path d="M1650 2115 c0 -12 8 -14 43 -9 63 10 69 24 9 24 -40 0 -52 -4 -52
-15z"/>
<path d="M2643 1578 c-15 -19 -24 -78 -12 -78 9 0 89 76 89 85 0 11 -68 4 -77
-7z"/>
<path d="M27 816 c-4 -15 -6 -31 -2 -34 10 -10 16 6 13 35 l-3 28 -8 -29z"/>
<path d="M0 640 c0 -39 2 -42 23 -35 12 3 27 7 32 7 6 1 10 13 9 27 -1 19 -6
25 -18 23 -10 -2 -24 2 -32 9 -12 10 -14 5 -14 -31z"/>
<path d="M60 588 c0 -7 5 -20 10 -28 8 -12 10 -9 10 13 0 15 -4 27 -10 27 -5
0 -10 -6 -10 -12z"/>
<path d="M813 423 c-7 -2 -13 -11 -13 -18 0 -12 -21 -30 -79 -72 -3 -2 4 -12
15 -23 20 -19 154 -74 162 -66 7 8 -52 179 -63 182 -6 1 -16 0 -22 -3z m7 -83
c0 -31 -13 -37 -39 -21 -12 8 -11 13 10 30 31 26 29 26 29 -9z"/>
<path d="M1347 253 c-4 -3 -7 -11 -7 -17 0 -6 5 -5 12 2 6 6 9 14 7 17 -3 3
-9 2 -12 -2z"/>
</g>
</svg>
